<svg width="26" height="26" xmlns="http://www.w3.org/2000/svg" fill="none">
 <g>
  <title>Layer 1</title>
  <g id="Group 1">
   <path id="Vector" d="m25.16693,17.49137c0,0 -1.474,5.019 -6.267,6.9102c0,0 2.383,-4.1776 2.402,-4.3013c0.02,-0.1236 3.409,-3.2029 3.865,-2.6089z" fill="#0B4367"/>
   <path id="Vector_2" d="m12.15893,25.46357c0,0 2.158,-0.0606 3.395,-0.6328c0.717,-0.3392 1.485,-0.5587 2.274,-0.6498c0,0 -2.575,1.1832 -2.832,1.4693c-0.257,0.2861 -3.853,0.1019 -2.878,-0.1867" fill="#0B4367"/>
   <path id="Vector_3" d="m6.17823,23.15777c0,0 0.4849,0.4849 5.0377,0.3952c4.782,-0.0921 6.614,0.628 6.614,0.628c0,0 -4.153,0.3006 -5.244,0.4849c-1.091,0.1843 -5.1785,0.4849 -6.1289,-0.8826c-0.9504,-1.3674 -0.2788,-0.6255 -0.2788,-0.6255z" fill="#0B4367"/>
   <path id="Vector_4" d="m1.73413,7.86074c0,0 0.0145,1.25596 3.5131,1.98577c3.4987,0.72986 9.1377,2.01486 12.4357,4.28436c3.297,2.2694 3.69,4.2916 3.607,5.0578c-0.082,0.7662 -2.044,3.152 -2.044,3.152c0,0 -0.242,-2.2743 -2.667,-3.7364c-2.424,-1.462 -5.333,-2.9095 -7.516,-3.2514c-0.778,-0.1188 -2.7441,-0.8753 -4.4436,-1.5081c-3.0864,-1.1396 -5.911,-2.6865 -2.8852,-5.98403z" fill="#0B4367"/>
   <path id="Vector_5" d="m6.99033,1.63912c0,0 5.8816,-3.00898 11.8076,-0.19155c5.925,2.81743 8.085,9.4076 7.181,13.578c0,0 -0.453,-8.27532 -8.6,-11.71103c-4.897,-2.06821 -10.3886,-1.67542 -10.3886,-1.67542z" fill="#0B4367"/>
   <path id="Vector_6" d="m5.32683,2.85387c0.108,-0.03139 0.223,-0.02867 0.3293,0.00778c0.1063,0.03646 0.1988,0.10487 0.2648,0.19588c0.02,0.01944 0.044,0.03433 0.0703,0.04365c0.7685,0.31277 7.1277,0.09213 12.6757,3.29508c5.547,3.20295 6.856,6.94661 6.505,11.02721c-0.004,0.0464 -0.014,0.0921 -0.03,0.1358c-0.157,0.4195 -1.047,2.6817 -2.058,3.4406c-1.113,0.8341 -0.046,-5.2009 -4.061,-8.6511c-4.015,-3.45029 -8.382,-4.8493 -13.7349,-6.42289c-3.3409,-0.9844 -1.8232,-2.33008 -0.063,-3.03322l0.1018,-0.03879z" fill="#0B4367"/>
   <path id="Vector_7" d="m6.99033,1.63912c0,0 8.4856,-4.3401 14.4666,1.83787l1.133,1.29476c0,0 -3.111,-3.00655 -6.789,-3.83092c-3.678,-0.82438 -8.8106,0.69829 -8.8106,0.69829z" fill="#9CC6CE"/>
   <path id="Vector_8" d="m1.11813,15.72867c0,0 0.1382,1.5106 6.5001,2.5313c6.3617,1.0208 10.6317,2.1119 10.7237,5.3173l-0.325,0.6716c0,0 -2.369,-1.9737 -5.501,-2.204c-3.133,-0.2303 -13.2065,-1.0911 -11.3978,-6.3162z" fill="#0B4367"/>
   <path id="Vector_9" d="m9.03393,2.14829c0,0 2.667,0 2.197,2.69377c-0.47,2.69377 -1.712,6.37921 -6.716,13.80591c-0.9698,1.4232 -1.4231,3.8382 2.3833,5.6009c0,0 -0.7443,-1.9252 0.2789,-3.7606c1.0228,-1.8355 7.0548,-13.97563 5.5468,-16.48756c-1.508,-2.51192 -3.69,-1.85242 -3.69,-1.85242z" fill="#2EA5C2"/>
   <path id="Vector_10" d="m8.40393,1.84763c0,0 0.352,0.96986 -1.3213,3.06475c-1.6729,2.09488 -1.6244,2.6671 -4.0852,5.10628c-2.4609,2.43921 -3.2489,4.57291 -1.833,8.14921c0,0 0.5116,-3.1811 2.2742,-5.7124c1.7626,-2.53137 6.6793,-9.19185 4.9653,-10.60784z" fill="#2EA5C2"/>
   <path id="Vector_11" d="m7.61823,2.07313c0,0 -1.394,1.56146 -2.9094,2.39796c-1.5153,0.8365 -4.318,3.59816 -4.1556,5.94278c0,0 -0.1964,-1.38688 2.924,-3.9473c4.141,-3.38964 4.141,-4.39344 4.141,-4.39344z" fill="#2EA5C2"/>
   <path id="Vector_12" d="m9.93893,1.38211c0,0 6.291,-0.83407 7.382,3.76061c1.091,4.59469 -1.939,10.00645 -3.435,13.11725c-1.496,3.1108 -4.018,6.4762 -3.552,7.3588c0,0 2.066,0.4413 2.807,-0.1164c0.742,-0.5576 0.699,-2.3204 2.578,-4.922c1.879,-2.6016 4.121,-9.3082 3.714,-12.65174c-0.407,-3.34358 -1.903,-7.80006 -9.494,-6.54652z" fill="#2EA5C2"/>
   <path id="Vector_13" d="m20.82393,2.79809c0,0 3.926,3.45996 2.694,9.38088c-1.232,5.921 -5.409,12.1644 -7.383,13.1852c0,0 2.161,1.2754 6.2,-5.2469c4.039,-6.5223 3.295,-13.53675 -1.511,-17.31918z" fill="#2EA5C2"/>
  </g>
 </g>

</svg>