<svg
          viewBox="0 0 96 96"
          fill="none"
          xmlns="http://www.w3.org/2000/svg"
          width="100%"
          height="100%"
        >
          <g id="WalletConnect">
            <rect
              id="Rectangle 72"
              width="96"
              height="96"
              rx="10"
              fill="#3396FF"
            />
            <g id="WalletConnect-icon 1" clipPath="url(#clip0_122_870)">
              <path
                id="WalletConnect_00000073703063438220642730000002917717552236472496_"
                d="M26.9249 34.9488C38.3638 23.7905 56.9158 23.7905 68.3547 34.9488L69.7303 36.2828C70.3095 36.8416 70.3095 37.7429 69.7303 38.3018L65.0244 42.8985C64.7348 43.1689 64.2823 43.1689 63.9927 42.8985L62.0923 41.0418C54.1104 33.2544 41.1692 33.2544 33.1873 41.0418L31.1602 43.0247C30.8706 43.2951 30.4181 43.2951 30.1285 43.0247L25.4045 38.446C24.8253 37.8872 24.8253 36.9858 25.4045 36.427L26.9249 34.9488ZM78.0923 44.4488L82.2914 48.5408C82.8706 49.0996 82.8706 50.0009 82.2914 50.5597L63.3774 69.0007C62.7982 69.5596 61.8751 69.5596 61.314 69.0007L47.9022 55.9136C47.7575 55.7694 47.5222 55.7694 47.3774 55.9136L33.9656 69.0007C33.3864 69.5596 32.4633 69.5596 31.9022 69.0007L12.9882 50.5597C12.409 50.0009 12.409 49.0996 12.9882 48.5408L17.1873 44.4488C17.7665 43.8899 18.6896 43.8899 19.2507 44.4488L32.6624 57.5359C32.8072 57.6802 33.0425 57.6802 33.1873 57.5359L46.5991 44.4488C47.1783 43.8899 48.1013 43.8899 48.6624 44.4488L62.0742 57.5359C62.219 57.6802 62.4543 57.6802 62.5991 57.5359L76.0108 44.4488C76.59 43.8899 77.5131 43.8899 78.0923 44.4488Z"
                fill="white"
              />
            </g>
          </g>
          <defs>
            <clipPath id="clip0_122_870">
              <rect
                width="70.1538"
                height="42.8308"
                fill="white"
                transform="translate(12.5538 26.5847)"
              />
            </clipPath>
          </defs>
        </svg>